<svg width="1023" height="758" xmlns="http://www.w3.org/2000/svg"><g><path d="M-63,-54L-117,35L44,25Z" fill="#ab012a" stroke="#ab012a"/><path d="M-63,-54L44,25L60,-113Z" fill="#a70329" stroke="#a70329"/><path d="M60,-113L44,25L245,-23Z" fill="#c21c2c" stroke="#c21c2c"/><path d="M60,-113L245,-23L342,-82Z" fill="#c13a39" stroke="#c13a39"/><path d="M60,-113L342,-82L791,-117Z" fill="#ba6d59" stroke="#ba6d59"/><path d="M245,-23L44,25L224,78Z" fill="#e23734" stroke="#e23734"/><path d="M245,-23L224,78L359,24Z" fill="#ea5743" stroke="#ea5743"/><path d="M245,-23L359,24L342,-82Z" fill="#d75949" stroke="#d75949"/><path d="M342,-82L359,24L474,-40Z" fill="#d56c59" stroke="#d56c59"/><path d="M342,-82L474,-40L791,-117Z" fill="#ab7558" stroke="#ab7558"/><path d="M474,-40L359,24L454,104Z" fill="#e97d5c" stroke="#e97d5c"/><path d="M474,-40L454,104L590,-31Z" fill="#d47b5c" stroke="#d47b5c"/><path d="M474,-40L590,-31L791,-117Z" fill="#9c6c4b" stroke="#9c6c4b"/><path d="M590,-31L454,104L631,108Z" fill="#db8955" stroke="#db8955"/><path d="M590,-31L631,108L790,59Z" fill="#b6764a" stroke="#b6764a"/><path d="M590,-31L790,59L791,-117Z" fill="#875d48" stroke="#875d48"/><path d="M791,-117L790,59L925,-106Z" fill="#59483c" stroke="#59483c"/><path d="M925,-106L790,59L934,109Z" fill="#704537" stroke="#704537"/><path d="M925,-106L934,109L1000,-54Z" fill="#5c2d2e" stroke="#5c2d2e"/><path d="M925,-106L1000,-54L1166,-86Z" fill="#431b24" stroke="#431b24"/><path d="M1000,-54L934,109L1006,71Z" fill="#73362c" stroke="#73362c"/><path d="M1000,-54L1006,71L1166,-86Z" fill="#5a1422" stroke="#5a1422"/><path d="M1166,-86L1006,71L1211,24Z" fill="#640519" stroke="#640519"/><path d="M-117,35L-119,226L83,184Z" fill="#c6403b" stroke="#c6403b"/><path d="M-117,35L83,184L44,25Z" fill="#d3202b" stroke="#d3202b"/><path d="M44,25L83,184L224,78Z" fill="#ed4331" stroke="#ed4331"/><path d="M224,78L83,184L184,189Z" fill="#f46b44" stroke="#f46b44"/><path d="M224,78L184,189L364,237Z" fill="#fc9155" stroke="#fc9155"/><path d="M224,78L364,237L359,24Z" fill="#fe8852" stroke="#fe8852"/><path d="M359,24L364,237L454,104Z" fill="#ff9f64" stroke="#ff9f64"/><path d="M454,104L364,237L495,249Z" fill="#faca78" stroke="#faca78"/><path d="M454,104L495,249L631,108Z" fill="#e8b86c" stroke="#e8b86c"/><path d="M631,108L495,249L666,177Z" fill="#d7bd66" stroke="#d7bd66"/><path d="M631,108L666,177L741,185Z" fill="#bea75c" stroke="#bea75c"/><path d="M631,108L741,185L790,59Z" fill="#b18e52" stroke="#b18e52"/><path d="M790,59L741,185L867,232Z" fill="#949454" stroke="#949454"/><path d="M790,59L867,232L934,109Z" fill="#877a47" stroke="#877a47"/><path d="M934,109L867,232L1087,246Z" fill="#808249" stroke="#808249"/><path d="M934,109L1087,246L1006,71Z" fill="#805c37" stroke="#805c37"/><path d="M1006,71L1087,246L1147,248Z" fill="#806239" stroke="#806239"/><path d="M1006,71L1147,248L1211,24Z" fill="#803423" stroke="#803423"/><path d="M1211,24L1147,248L1213,301Z" fill="#805531" stroke="#805531"/><path d="M1211,24L1213,301L1229,445Z" fill="#807144" stroke="#807144"/><path d="M-119,226L-115,591L-67,442Z" fill="#aa805b" stroke="#aa805b"/><path d="M-119,226L-67,442L-71,313Z" fill="#bd8066" stroke="#bd8066"/><path d="M-119,226L-71,313L83,184Z" fill="#ca6c51" stroke="#ca6c51"/><path d="M83,184L-71,313L70,389Z" fill="#d98464" stroke="#d98464"/><path d="M83,184L70,389L184,189Z" fill="#ed8b58" stroke="#ed8b58"/><path d="M184,189L70,389L206,377Z" fill="#f2a76e" stroke="#f2a76e"/><path d="M184,189L206,377L332,334Z" fill="#fbc179" stroke="#fbc179"/><path d="M184,189L332,334L364,237Z" fill="#fec271" stroke="#fec271"/><path d="M364,237L332,334L469,388Z" fill="#ffeb94" stroke="#ffeb94"/><path d="M364,237L469,388L495,249Z" fill="#f9ee95" stroke="#f9ee95"/><path d="M495,249L469,388L652,346Z" fill="#e5f494" stroke="#e5f494"/><path d="M495,249L652,346L666,177Z" fill="#d5df7a" stroke="#d5df7a"/><path d="M666,177L652,346L741,185Z" fill="#bccd6f" stroke="#bccd6f"/><path d="M741,185L652,346L788,310Z" fill="#afd57c" stroke="#afd57c"/><path d="M741,185L788,310L867,232Z" fill="#94bc69" stroke="#94bc69"/><path d="M867,232L788,310L927,341Z" fill="#87bf73" stroke="#87bf73"/><path d="M867,232L927,341L1087,246Z" fill="#80a160" stroke="#80a160"/><path d="M1087,246L927,341L1092,335Z" fill="#809961" stroke="#809961"/><path d="M1087,246L1092,335L1147,248Z" fill="#807f4f" stroke="#807f4f"/><path d="M1147,248L1092,335L1213,301Z" fill="#807d50" stroke="#807d50"/><path d="M-71,313L-67,442L70,389Z" fill="#cc8066" stroke="#cc8066"/><path d="M70,389L-67,442L79,507Z" fill="#c08655" stroke="#c08655"/><path d="M70,389L79,507L191,497Z" fill="#cb9954" stroke="#cb9954"/><path d="M70,389L191,497L206,377Z" fill="#e3a863" stroke="#e3a863"/><path d="M206,377L191,497L396,443Z" fill="#e6c96e" stroke="#e6c96e"/><path d="M206,377L396,443L332,334Z" fill="#fcd883" stroke="#fcd883"/><path d="M332,334L396,443L469,388Z" fill="#fbed94" stroke="#fbed94"/><path d="M469,388L396,443L493,489Z" fill="#e0f389" stroke="#e0f389"/><path d="M469,388L493,489L652,346Z" fill="#dbf48d" stroke="#dbf48d"/><path d="M652,346L493,489L627,536Z" fill="#bbee78" stroke="#bbee78"/><path d="M652,346L627,536L799,532Z" fill="#95de71" stroke="#95de71"/><path d="M652,346L799,532L788,310Z" fill="#a1d97d" stroke="#a1d97d"/><path d="M788,310L799,532L927,341Z" fill="#84c775" stroke="#84c775"/><path d="M927,341L799,532L894,540Z" fill="#61bc60" stroke="#61bc60"/><path d="M927,341L894,540L1096,522Z" fill="#5da554" stroke="#5da554"/><path d="M927,341L1096,522L1092,335Z" fill="#78985b" stroke="#78985b"/><path d="M1092,335L1096,522L1229,445Z" fill="#6b8146" stroke="#6b8146"/><path d="M1092,335L1229,445L1213,301Z" fill="#808053" stroke="#808053"/><path d="M-67,442L-115,591L79,507Z" fill="#90744f" stroke="#90744f"/><path d="M79,507L-115,591L28,641Z" fill="#736347" stroke="#736347"/><path d="M79,507L28,641L174,637Z" fill="#827445" stroke="#827445"/><path d="M79,507L174,637L191,497Z" fill="#a59153" stroke="#a59153"/><path d="M191,497L174,637L328,584Z" fill="#a0a45a" stroke="#a0a45a"/><path d="M191,497L328,584L396,443Z" fill="#c7cc6c" stroke="#c7cc6c"/><path d="M396,443L328,584L468,593Z" fill="#b6db7d" stroke="#b6db7d"/><path d="M396,443L468,593L493,489Z" fill="#bfe882" stroke="#bfe882"/><path d="M493,489L468,593L627,536Z" fill="#a0e47c" stroke="#a0e47c"/><path d="M627,536L468,593L591,656Z" fill="#78d06f" stroke="#78d06f"/><path d="M627,536L591,656L746,669Z" fill="#55bd60" stroke="#55bd60"/><path d="M627,536L746,669L799,532Z" fill="#51c065" stroke="#51c065"/><path d="M799,532L746,669L876,592Z" fill="#28ab5a" stroke="#28ab5a"/><path d="M799,532L876,592L894,540Z" fill="#37ad5b" stroke="#37ad5b"/><path d="M894,540L876,592L1000,641Z" fill="#1a934d" stroke="#1a934d"/><path d="M894,540L1000,641L1096,522Z" fill="#288848" stroke="#288848"/><path d="M1096,522L1000,641L1219,651Z" fill="#136435" stroke="#136435"/><path d="M1096,522L1219,651L1229,445Z" fill="#386e3a" stroke="#386e3a"/><path d="M1229,445L1219,651L1226,794Z" fill="#0c522b" stroke="#0c522b"/><path d="M-115,591L-74,907L-50,736Z" fill="#3f2727" stroke="#3f2727"/><path d="M-115,591L-50,736L28,641Z" fill="#4e4839" stroke="#4e4839"/><path d="M28,641L-50,736L46,779Z" fill="#55332d" stroke="#55332d"/><path d="M28,641L46,779L174,637Z" fill="#675034" stroke="#675034"/><path d="M174,637L46,779L210,804Z" fill="#724d2e" stroke="#724d2e"/><path d="M174,637L210,804L320,772Z" fill="#7c693c" stroke="#7c693c"/><path d="M174,637L320,772L328,584Z" fill="#819150" stroke="#819150"/><path d="M328,584L320,772L468,593Z" fill="#87b165" stroke="#87b165"/><path d="M468,593L320,772L529,794Z" fill="#7aa25f" stroke="#7aa25f"/><path d="M468,593L529,794L591,656Z" fill="#69b463" stroke="#69b463"/><path d="M591,656L529,794L668,750Z" fill="#589a4f" stroke="#589a4f"/><path d="M591,656L668,750L746,669Z" fill="#42a052" stroke="#42a052"/><path d="M746,669L668,750L811,729Z" fill="#2a8c49" stroke="#2a8c49"/><path d="M746,669L811,729L876,592Z" fill="#14934d" stroke="#14934d"/><path d="M876,592L811,729L1000,641Z" fill="#0a8345" stroke="#0a8345"/><path d="M1000,641L811,729L930,805Z" fill="#016435" stroke="#016435"/><path d="M1000,641L930,805L1082,741Z" fill="#004d29" stroke="#004d29"/><path d="M1000,641L1082,741L1219,651Z" fill="#014a27" stroke="#014a27"/><path d="M1219,651L1082,741L1226,794Z" fill="#002d18" stroke="#002d18"/><path d="M-50,736L-74,907L46,779Z" fill="#4c0f1b" stroke="#4c0f1b"/><path d="M46,779L-74,907L39,941Z" fill="#540113" stroke="#540113"/><path d="M46,779L39,941L173,916Z" fill="#681414" stroke="#681414"/><path d="M46,779L173,916L210,804Z" fill="#722a1c" stroke="#722a1c"/><path d="M210,804L173,916L366,883Z" fill="#7c4528" stroke="#7c4528"/><path d="M210,804L366,883L320,772Z" fill="#7e5f35" stroke="#7e5f35"/><path d="M320,772L366,883L529,794Z" fill="#7f7b4b" stroke="#7f7b4b"/><path d="M529,794L366,883L527,860Z" fill="#747646" stroke="#747646"/><path d="M529,794L527,860L675,870Z" fill="#5c733c" stroke="#5c733c"/><path d="M529,794L675,870L668,750Z" fill="#507b3d" stroke="#507b3d"/><path d="M668,750L675,870L811,729Z" fill="#33763e" stroke="#33763e"/><path d="M811,729L675,870L820,892Z" fill="#205c30" stroke="#205c30"/><path d="M811,729L820,892L930,805Z" fill="#09522b" stroke="#09522b"/><path d="M930,805L820,892L892,911Z" fill="#053e21" stroke="#053e21"/><path d="M930,805L892,911L1010,926Z" fill="#002f19" stroke="#002f19"/><path d="M930,805L1010,926L1082,741Z" fill="#002816" stroke="#002816"/><path d="M1082,741L1010,926L1204,873Z" fill="#000a06" stroke="#000a06"/><path d="M1082,741L1204,873L1226,794Z" fill="#001109" stroke="#001109"/><path d="M39,941L1010,926L892,911Z" fill="#496834" stroke="#496834"/><path d="M39,941L892,911L173,916Z" fill="#7f663d" stroke="#7f663d"/><path d="M173,916L892,911L366,883Z" fill="#737546" stroke="#737546"/><path d="M366,883L892,911L675,870Z" fill="#4a6934" stroke="#4a6934"/><path d="M366,883L675,870L527,860Z" fill="#6a7744" stroke="#6a7744"/><path d="M675,870L892,911L820,892Z" fill="#16502a" stroke="#16502a"/></g><filter id="noise"><feTurbulence type="fractalNoise" in="fillPaint" fill="#F00" baseFrequency="0.7" numOctaves="3" stitchTiles="stitch"/><feComponentTransfer><feFuncR type="linear" slope="2" intercept="-.5"/><feFuncG type="linear" slope="2" intercept="-.5"/><feFuncB type="linear" slope="2" intercept="-.5"/></feComponentTransfer><feColorMatrix type="matrix" values="0.3333 0.3333 0.3333 0 0 
 0.3333 0.3333 0.3333 0 0 
 0.3333 0.3333 0.3333 0 0 
 0 0 0 1 0"/></filter><rect opacity="0.2" width="100%" height="100%" filter="url(#noise)"/></svg>