<svg width="1023" height="758" xmlns="http://www.w3.org/2000/svg"><g><path d="M-87,-30L-118,378L-99,168Z" fill="#c58e52" stroke="#c58e52"/><path d="M-87,-30L-99,168L-54,115Z" fill="#bb7831" stroke="#bb7831"/><path d="M-87,-30L-54,115L28,-97Z" fill="#b06014" stroke="#b06014"/><path d="M28,-97L-54,115L107,108Z" fill="#c28135" stroke="#c28135"/><path d="M28,-97L107,108L246,-62Z" fill="#c58237" stroke="#c58237"/><path d="M28,-97L246,-62L351,-66Z" fill="#c57f40" stroke="#c57f40"/><path d="M28,-97L351,-66L795,-97Z" fill="#cc9176" stroke="#cc9176"/><path d="M246,-62L107,108L246,82Z" fill="#daaa5f" stroke="#daaa5f"/><path d="M246,-62L246,82L340,60Z" fill="#dcae70" stroke="#dcae70"/><path d="M246,-62L340,60L351,-66Z" fill="#d4a067" stroke="#d4a067"/><path d="M351,-66L340,60L452,32Z" fill="#deb487" stroke="#deb487"/><path d="M351,-66L452,32L522,-25Z" fill="#d1aa81" stroke="#d1aa81"/><path d="M351,-66L522,-25L580,-29Z" fill="#c19d74" stroke="#c19d74"/><path d="M351,-66L580,-29L795,-97Z" fill="#a28c66" stroke="#a28c66"/><path d="M522,-25L452,32L583,111Z" fill="#c6b98d" stroke="#c6b98d"/><path d="M522,-25L583,111L580,-29Z" fill="#b6ad80" stroke="#b6ad80"/><path d="M580,-29L583,111L736,67Z" fill="#a7b081" stroke="#a7b081"/><path d="M580,-29L736,67L795,-97Z" fill="#848959" stroke="#848959"/><path d="M795,-97L736,67L907,104Z" fill="#6a8755" stroke="#6a8755"/><path d="M795,-97L907,104L907,-90Z" fill="#5e6936" stroke="#5e6936"/><path d="M795,-97L907,-90L1064,-81Z" fill="#524824" stroke="#524824"/><path d="M907,-90L907,104L1001,67Z" fill="#68723d" stroke="#68723d"/><path d="M907,-90L1001,67L1064,-81Z" fill="#5d501c" stroke="#5d501c"/><path d="M1064,-81L1001,67L1144,-45Z" fill="#604912" stroke="#604912"/><path d="M1144,-45L1001,67L1193,85Z" fill="#6a561f" stroke="#6a561f"/><path d="M-54,115L-99,168L20,191Z" fill="#cd9a4f" stroke="#cd9a4f"/><path d="M-54,115L20,191L107,108Z" fill="#d4a559" stroke="#d4a559"/><path d="M107,108L20,191L178,164Z" fill="#e1bc71" stroke="#e1bc71"/><path d="M107,108L178,164L246,82Z" fill="#e5c176" stroke="#e5c176"/><path d="M246,82L178,164L381,164Z" fill="#f0d796" stroke="#f0d796"/><path d="M246,82L381,164L340,60Z" fill="#ecd099" stroke="#ecd099"/><path d="M340,60L381,164L452,32Z" fill="#edd2a7" stroke="#edd2a7"/><path d="M452,32L381,164L509,200Z" fill="#ece3b9" stroke="#ece3b9"/><path d="M452,32L509,200L583,111Z" fill="#d5d5aa" stroke="#d5d5aa"/><path d="M583,111L509,200L617,234Z" fill="#cce1bb" stroke="#cce1bb"/><path d="M583,111L617,234L761,180Z" fill="#b3d5ab" stroke="#b3d5ab"/><path d="M583,111L761,180L736,67Z" fill="#a1c090" stroke="#a1c090"/><path d="M736,67L761,180L907,104Z" fill="#7fac7a" stroke="#7fac7a"/><path d="M907,104L761,180L921,214Z" fill="#80af80" stroke="#80af80"/><path d="M907,104L921,214L1045,162Z" fill="#809e6b" stroke="#809e6b"/><path d="M907,104L1045,162L1001,67Z" fill="#788a53" stroke="#788a53"/><path d="M1001,67L1045,162L1193,85Z" fill="#77763f" stroke="#77763f"/><path d="M1193,85L1045,162L1154,251Z" fill="#808050" stroke="#808050"/><path d="M1193,85L1154,251L1203,368Z" fill="#807d68" stroke="#807d68"/><path d="M1193,85L1203,368L1219,523Z" fill="#787f7e" stroke="#787f7e"/><path d="M-99,168L-118,378L20,191Z" fill="#ca9c6c" stroke="#ca9c6c"/><path d="M20,191L-118,378L104,332Z" fill="#d3b18c" stroke="#d3b18c"/><path d="M20,191L104,332L178,164Z" fill="#e1c28b" stroke="#e1c28b"/><path d="M178,164L104,332L195,340Z" fill="#e9d4ab" stroke="#e9d4ab"/><path d="M178,164L195,340L381,164Z" fill="#f2e0b0" stroke="#f2e0b0"/><path d="M381,164L195,340L395,371Z" fill="#f6efdd" stroke="#f6efdd"/><path d="M381,164L395,371L509,200Z" fill="#f5f4e3" stroke="#f5f4e3"/><path d="M509,200L395,371L535,332Z" fill="#e6f3f0" stroke="#e6f3f0"/><path d="M509,200L535,332L617,234Z" fill="#d1e8d7" stroke="#d1e8d7"/><path d="M617,234L535,332L655,321Z" fill="#c3e7df" stroke="#c3e7df"/><path d="M617,234L655,321L761,180Z" fill="#acd7bf" stroke="#acd7bf"/><path d="M761,180L655,321L791,316Z" fill="#9acebd" stroke="#9acebd"/><path d="M761,180L791,316L921,214Z" fill="#80bca0" stroke="#80bca0"/><path d="M921,214L791,316L901,373Z" fill="#80b9ad" stroke="#80b9ad"/><path d="M921,214L901,373L1040,378Z" fill="#79aa9c" stroke="#79aa9c"/><path d="M921,214L1040,378L1045,162Z" fill="#809e82" stroke="#809e82"/><path d="M1045,162L1040,378L1154,251Z" fill="#809177" stroke="#809177"/><path d="M1154,251L1040,378L1203,368Z" fill="#768a7d" stroke="#768a7d"/><path d="M-118,378L-60,955L-76,646Z" fill="#475c33" stroke="#475c33"/><path d="M-118,378L-76,646L-25,528Z" fill="#7d8860" stroke="#7d8860"/><path d="M-118,378L-25,528L88,449Z" fill="#9ea77c" stroke="#9ea77c"/><path d="M-118,378L88,449L104,332Z" fill="#bab48c" stroke="#bab48c"/><path d="M104,332L88,449L195,340Z" fill="#cdcca6" stroke="#cdcca6"/><path d="M195,340L88,449L212,454Z" fill="#c4d4ac" stroke="#c4d4ac"/><path d="M195,340L212,454L395,371Z" fill="#d6e6ca" stroke="#d6e6ca"/><path d="M395,371L212,454L301,528Z" fill="#c3e8cf" stroke="#c3e8cf"/><path d="M395,371L301,528L480,527Z" fill="#beede2" stroke="#beede2"/><path d="M395,371L480,527L535,332Z" fill="#c4f1ea" stroke="#c4f1ea"/><path d="M535,332L480,527L637,533Z" fill="#9be5d9" stroke="#9be5d9"/><path d="M535,332L637,533L655,321Z" fill="#a2e4d9" stroke="#a2e4d9"/><path d="M655,321L637,533L798,449Z" fill="#7ad3c5" stroke="#7ad3c5"/><path d="M655,321L798,449L791,316Z" fill="#82cdc1" stroke="#82cdc1"/><path d="M791,316L798,449L901,373Z" fill="#66beaf" stroke="#66beaf"/><path d="M901,373L798,449L919,523Z" fill="#4eb4a2" stroke="#4eb4a2"/><path d="M901,373L919,523L1040,378Z" fill="#56a794" stroke="#56a794"/><path d="M1040,378L919,523L1082,498Z" fill="#489782" stroke="#489782"/><path d="M1040,378L1082,498L1203,368Z" fill="#5a8c77" stroke="#5a8c77"/><path d="M1203,368L1082,498L1219,523Z" fill="#497d71" stroke="#497d71"/><path d="M-25,528L-76,646L86,620Z" fill="#678152" stroke="#678152"/><path d="M-25,528L86,620L88,449Z" fill="#88a174" stroke="#88a174"/><path d="M88,449L86,620L212,454Z" fill="#9dbb8f" stroke="#9dbb8f"/><path d="M212,454L86,620L175,640Z" fill="#88af82" stroke="#88af82"/><path d="M212,454L175,640L301,528Z" fill="#9cc69e" stroke="#9cc69e"/><path d="M301,528L175,640L362,635Z" fill="#87bb9a" stroke="#87bb9a"/><path d="M301,528L362,635L480,527Z" fill="#9bd3c3" stroke="#9bd3c3"/><path d="M480,527L362,635L516,590Z" fill="#88ccc0" stroke="#88ccc0"/><path d="M480,527L516,590L637,533Z" fill="#7ccdbf" stroke="#7ccdbf"/><path d="M637,533L516,590L650,641Z" fill="#5cbdac" stroke="#5cbdac"/><path d="M637,533L650,641L805,676Z" fill="#34a491" stroke="#34a491"/><path d="M637,533L805,676L798,449Z" fill="#3dae9b" stroke="#3dae9b"/><path d="M798,449L805,676L884,583Z" fill="#209a86" stroke="#209a86"/><path d="M798,449L884,583L919,523Z" fill="#34a38e" stroke="#34a38e"/><path d="M919,523L884,583L1091,648Z" fill="#1a7e67" stroke="#1a7e67"/><path d="M919,523L1091,648L1082,498Z" fill="#257b62" stroke="#257b62"/><path d="M1082,498L1091,648L1219,608Z" fill="#1a614b" stroke="#1a614b"/><path d="M1082,498L1219,608L1219,523Z" fill="#2a6558" stroke="#2a6558"/><path d="M1219,523L1219,608L1221,796Z" fill="#044538" stroke="#044538"/><path d="M-76,646L-60,955L-59,813Z" fill="#4a3706" stroke="#4a3706"/><path d="M-76,646L-59,813L51,795Z" fill="#4f501c" stroke="#4f501c"/><path d="M-76,646L51,795L86,620Z" fill="#566e3c" stroke="#566e3c"/><path d="M86,620L51,795L163,751Z" fill="#617645" stroke="#617645"/><path d="M86,620L163,751L175,640Z" fill="#678f5f" stroke="#678f5f"/><path d="M175,640L163,751L337,783Z" fill="#719163" stroke="#719163"/><path d="M175,640L337,783L362,635Z" fill="#74a483" stroke="#74a483"/><path d="M362,635L337,783L508,730Z" fill="#7aa99a" stroke="#7aa99a"/><path d="M362,635L508,730L516,590Z" fill="#6cb8aa" stroke="#6cb8aa"/><path d="M516,590L508,730L650,641Z" fill="#50ae9c" stroke="#50ae9c"/><path d="M650,641L508,730L666,724Z" fill="#429c88" stroke="#429c88"/><path d="M650,641L666,724L805,676Z" fill="#23907b" stroke="#23907b"/><path d="M805,676L666,724L818,763Z" fill="#127a63" stroke="#127a63"/><path d="M805,676L818,763L902,746Z" fill="#006b52" stroke="#006b52"/><path d="M805,676L902,746L884,583Z" fill="#007860" stroke="#007860"/><path d="M884,583L902,746L1091,648Z" fill="#006a50" stroke="#006a50"/><path d="M1091,648L902,746L1046,816Z" fill="#004a2d" stroke="#004a2d"/><path d="M1091,648L1046,816L1221,796Z" fill="#003316" stroke="#003316"/><path d="M1091,648L1221,796L1219,608Z" fill="#003c2b" stroke="#003c2b"/><path d="M-59,813L-60,955L57,930Z" fill="#502c08" stroke="#502c08"/><path d="M-59,813L57,930L51,795Z" fill="#563f11" stroke="#563f11"/><path d="M51,795L57,930L163,751Z" fill="#605623" stroke="#605623"/><path d="M163,751L57,930L239,955Z" fill="#695632" stroke="#695632"/><path d="M163,751L239,955L337,783Z" fill="#72754b" stroke="#72754b"/><path d="M337,783L239,955L378,931Z" fill="#766f60" stroke="#766f60"/><path d="M337,783L378,931L516,876Z" fill="#7a807b" stroke="#7a807b"/><path d="M337,783L516,876L508,730Z" fill="#6e8f7d" stroke="#6e8f7d"/><path d="M508,730L516,876L666,724Z" fill="#4f8a75" stroke="#4f8a75"/><path d="M666,724L516,876L729,905Z" fill="#39705c" stroke="#39705c"/><path d="M666,724L729,905L818,763Z" fill="#1a6950" stroke="#1a6950"/><path d="M818,763L729,905L897,916Z" fill="#024939" stroke="#024939"/><path d="M818,763L897,916L902,746Z" fill="#004e32" stroke="#004e32"/><path d="M902,746L897,916L1046,816Z" fill="#003c1f" stroke="#003c1f"/><path d="M1046,816L897,916L1092,933Z" fill="#002113" stroke="#002113"/><path d="M1046,816L1092,933L1142,929Z" fill="#001203" stroke="#001203"/><path d="M1046,816L1142,929L1221,796Z" fill="#001500" stroke="#001500"/><path d="M-60,955L663,958L239,955Z" fill="#746b55" stroke="#746b55"/><path d="M-60,955L239,955L57,930Z" fill="#5e4320" stroke="#5e4320"/><path d="M239,955L663,958L378,931Z" fill="#767979" stroke="#767979"/><path d="M378,931L663,958L516,876Z" fill="#5b706d" stroke="#5b706d"/><path d="M516,876L663,958L729,905Z" fill="#39635c" stroke="#39635c"/><path d="M663,958L1092,933L897,916Z" fill="#00372c" stroke="#00372c"/><path d="M663,958L897,916L729,905Z" fill="#124c44" stroke="#124c44"/></g><filter id="noise"><feTurbulence type="fractalNoise" in="fillPaint" fill="#F00" baseFrequency="0.7" numOctaves="3" stitchTiles="stitch"/><feComponentTransfer><feFuncR type="linear" slope="2" intercept="-.5"/><feFuncG type="linear" slope="2" intercept="-.5"/><feFuncB type="linear" slope="2" intercept="-.5"/></feComponentTransfer><feColorMatrix type="matrix" values="0.3333 0.3333 0.3333 0 0 
 0.3333 0.3333 0.3333 0 0 
 0.3333 0.3333 0.3333 0 0 
 0 0 0 1 0"/></filter><rect opacity="0.2" width="100%" height="100%" filter="url(#noise)"/></svg>